<svg width="292" height="194" viewBox="0 0 292 194" fill="none" xmlns="http://www.w3.org/2000/svg">
<g clip-path="url(#clip0_140_107)">
<path fill-rule="evenodd" clip-rule="evenodd" d="M125.336 16.4644H37.9643C24.1769 16.4644 13 27.6413 13 41.4287V154.023C13 167.811 24.1769 178.988 37.9643 178.988H125.54L78.756 97.6391L125.336 16.4644Z" fill="#FCBB0C"/>
<path fill-rule="evenodd" clip-rule="evenodd" d="M125.395 16.3602H63.1299C49.3424 16.3602 38.1655 27.5371 38.1655 41.3245V153.675C38.1655 167.462 49.3424 178.639 63.1298 178.639H125.34L78.756 97.6384L125.395 16.3602Z" fill="white" fill-opacity="0.24"/>
</g>
<g id="purple" clip-path="url(#clip1_140_107)">
<path fill-rule="evenodd" clip-rule="evenodd" d="M160.871 16.041C149.902 16.041 139.759 21.9198 134.275 31.4564L105.128 82.1363C99.6577 91.6488 99.6528 103.356 105.116 112.855L134.314 163.624C139.776 173.123 149.878 178.972 160.82 178.972H219.113C230.082 178.972 240.225 173.094 245.709 163.557L274.856 112.877C280.326 103.365 280.331 91.6573 274.869 82.1587L245.671 31.3891C240.208 21.8904 230.106 16.041 219.164 16.041H160.871ZM178.666 65.8075C174.402 65.8075 170.459 68.093 168.326 71.8006L156.995 91.5034C154.868 95.2016 154.866 99.7531 156.99 103.446L168.342 123.184C170.465 126.876 174.393 129.15 178.646 129.15H201.309C205.573 129.15 209.517 126.865 211.649 123.157L222.98 103.455C225.107 99.7564 225.109 95.2049 222.985 91.5121L211.634 71.7744C209.51 68.0816 205.583 65.8075 201.329 65.8075H178.666Z" fill="#4141F9"/>
<path fill-rule="evenodd" clip-rule="evenodd" d="M278.957 97.0893C274.757 94.9683 270.056 93.811 265.189 93.811H224C225.021 96.9867 224.68 100.494 222.978 103.454L211.646 123.157C209.514 126.864 205.571 129.15 201.306 129.15H178.644C175.635 129.15 172.79 128.012 170.63 126.039L151.153 159.906C148.345 164.789 146.977 170.25 147.05 175.693C151.25 177.814 155.95 178.972 160.817 178.972H219.11C230.079 178.972 240.222 173.093 245.707 163.556L274.853 112.876C277.661 107.994 279.029 102.533 278.957 97.0893Z" fill="white" fill-opacity="0.11"/>
</g>
<defs>
<clipPath id="clip0_140_107">
<rect width="113" height="163" fill="white" transform="translate(13 16)"/>
</clipPath>
<clipPath id="clip1_140_107">
<rect width="178" height="163" fill="white" transform="translate(101 16)"/>
</clipPath>
</defs>
</svg>


